@startuml abrirAulas

skinparam linetype polyline

state abrirAulas as "abrirAulas()" {

state " " as MostrandoLista
state " " as FiltrandoLista

[*] -[#green]-> MostrandoLista 
note on link
<b>Administrador</b> solicita abrir aulas
end note    

MostrandoLista -[#green]-> FiltrandoLista
note on link
<b>Sistema</b> presenta lista de aulas
• Código, nombre, capacidad de cada aula
• Edificio, planta, tipo de aula
• Permite solicitar filtrar lista
• Permite solicitar crear aula nueva
• Permite solicitar eliminar aula
• Permite solicitar editar aula
• Permite solicitar importar aulas
end note

FiltrandoLista -[#green]-> FiltrandoLista
note on link
<b>Administrador</b> solicita filtrar lista
<b>Sistema</b> presenta lista filtrada
end note

FiltrandoLista -[#green]-> [*]
note on link
<b>Administrador</b> solicita una de las opciones
end note
}

abrirAulas -[#green]-> AULA_ABIERTA
note on link
editarAula()
end note

abrirAulas -[#green]-> AULA_ABIERTA
note on link
crearAula()
end note

abrirAulas -[#green]-> AULAS_ABIERTO
note on link
eliminarAula()
end note

abrirAulas -[#green]-> AULAS_ABIERTO
note on link
importarAulas()
end note

abrirAulas -[#green]-> SISTEMA_DISPONIBLE
note on link
completarGestion()
end note

@enduml