@startuml
skinparam nodesep 60
skinparam ranksep 60
skinparam linetype polyline
skinparam NoteBackgroundColor lightyellow
skinparam NoteBorderColor gray
skinparam StateBackgroundColor #F5F5F5
skinparam StateBorderColor gray

state "crearUsuario()" as crearUsuario {
   
    ' Estados anónimos vacíos para simular los pasos
    state " " as Paso1
    state " " as Paso2
   
    [*] -[#green]-> Paso1
    note on link
      <b>Administrador</b> solicita crear usuario nuevo
    end note
   
    Paso1 -[#green]-> Paso2
    note on link
      <b>Sistema</b> solicita ingresar datos del usuario
      • Nombres Completos y Apellidos Completos
      • DNI / Pasaporte y Correo Electrónico
      • Rol en el Sistema
    end note
   
    Paso2 -[#green]-> [*]
    note on link
      <b>Administrador</b> proporciona datos mínimos
      <b>Sistema</b> permite crear usuario
      • Permite solicitar crear usuario
      • Permite solicitar cancelar creación
    end note
}

state "USUARIO_ABIERTO" as USUARIO_ABIERTO
state "USUARIOS_ABIERTO" as USUARIOS_ABIERTO

crearUsuario -[#green]---> USUARIO_ABIERTO
note right on link
  editarUsuario()
end note

crearUsuario -[#blue]---> USUARIOS_ABIERTO
note right on link
  cancelar creación
end note
@enduml